<?xml version="1.0" encoding="utf-8"?>
<!-- Generator: Adobe Illustrator 16.0.0, SVG Export Plug-In . SVG Version: 6.00 Build 0)  -->
<!DOCTYPE svg PUBLIC "-//W3C//DTD SVG 1.1//EN" "http://www.w3.org/Graphics/SVG/1.1/DTD/svg11.dtd">
<svg version="1.1" id="Layer_1" xmlns="http://www.w3.org/2000/svg" xmlns:xlink="http://www.w3.org/1999/xlink" x="0px" y="0px"
	 width="1382px" height="437px" viewBox="0 0 1382 437" enable-background="new 0 0 1382 437" xml:space="preserve">
<g transform="translate(0.000000,437.000000) scale(0.100000,-0.100000)">
	<path fill="#1E4481" d="M4160,2710V1510h70h70v1200v1200h-70h-70V2710z"/>
	<path fill="#1E4481" d="M11589.998,3510v-270h-174.999h-175v-55v-55h175h174.003L11592,2446l2.998-683.003l35-68.994
		c64.004-126.006,160.996-172.002,382.998-181.006l127.002-5.996v58.994V1625l-97.002,2.002
		c-127.002,3.994-195.996,23.994-243.994,72.002c-69.004,68.994-69.004,65-69.004,787.998V3130h205h205v55v55h-205h-205v270v270h-70
		h-70V3510z"/>
	<path fill="#1E4481" d="M840,3265c-198.999-37.002-341.001-112.998-465-247.002C275,2910,215,2797.998,172.002,2640
		c-22.002-82.998-25-116.001-26.001-260c0-142.002,2.998-177.998,22.998-255c72.002-280.996,238.999-482.002,483.999-582.998
		c110-46.006,213.003-64.004,362.002-64.004c263.999-0.996,467.002,81.006,627.998,252.002
		C1761.001,1855,1840,2022.002,1870,2212.998c17.998,110,7.998,329.004-20,432.002c-83.999,312.998-296.001,527.002-596.001,606.001
		C1150,3277.998,943.999,3285,840,3265z M1220,3140c305-86.001,502.002-357.998,517.002-715
		c11.997-265-64.004-482.002-224.004-640.996c-130.996-130-295-195-497.998-195c-135-1.006-221.001,17.998-335,72.998
		c-68.999,32.998-101.001,57.002-171.001,127.002C437.998,1860,415,1890.996,376.001,1970
		c-73.003,149.004-88.999,226.001-88.999,410c0,138.999,2.998,163.999,26.997,243.999C407.002,2932.001,602.998,3112.998,895,3161
		C973.999,3173.999,1136.001,3162.998,1220,3140z"/>
	<path fill="#1E4481" d="M2885,3265C2651,3222.001,2482.998,3106,2378.999,2917.001L2350,2865v187.998V3240h-70h-70v-865v-865h70h70
		v489.004C2350,2296,2353.999,2518.999,2361,2566C2395,2810,2518.999,2998.999,2703.999,3090
		c118.003,57.998,190,73.999,331.001,73.999c182.002,1.001,294.004-33.999,385.996-120c59.004-56.001,93.008-110,123.008-196.997
		c20-60,20.996-82.002,25.996-697.002l5-635l67.998-2.998l67.998-2.998l-2.998,652.998L3705,2815l-27.998,82.002
		c-60,176.997-172.002,286.997-347.002,341.997C3200,3280,3020,3290,2885,3265z"/>
	<path fill="#1E4481" d="M6757.997,3122.001c-168.994-400-300-766.001-365-1021.006c-33.994-130-37.998-160-37.998-270.996
		c0-114.004,2.002-130,25.996-180.996c58.008-123.008,138.008-176.006,250-166.006c163.008,15,322.002,162.998,383.008,356.006
		c30.996,100,43.994,206.992,55.996,494.995c17.998,400,42.002,526.001,130,695c45,85,45,85-84.004-67.998
		c-65.996-78.999-97.998-125-102.998-150c-8.994-47.002-8.994-133.999,1.006-376.001c12.998-295.996-14.004-489.004-89.004-652.002
		C6887.001,1700,6822.997,1610,6802.997,1610c-17.998,0-15.996,15,11.006,84.004c56.992,142.998,65.996,435,22.998,705.996
		c-44.004,277.998-50,367.002-37.002,582.998c5.996,105,15.996,214.004,20.996,241.001c5,27.002,8.008,51.001,6.006,52.002
		C6824.999,3277.998,6794.003,3208.999,6757.997,3122.001z"/>
	<path fill="#1E4481" d="M8244.999,3268.999c-207.998-30-412.998-146.001-530-300c-60.996-81.001-129.004-221.001-157.002-323.999
		c-18.994-67.998-22.002-107.002-22.002-265c-0.996-162.998,2.002-195,22.002-269.004
		C7634.003,1834.004,7814.003,1625,8054.999,1535c137.002-52.002,299.004-72.002,445.996-55c130,15,199.004,34.004,304.004,85
		c275.996,134.004,440,402.002,462.002,755c12.998,222.998-50,455-171.006,623.999
		C8917.001,3195,8592.001,3318.999,8244.999,3268.999z M8589.999,3145c190-46.001,352.002-180,445.996-370
		c67.002-136.001,86.006-222.998,87.002-390c2.002-172.002-20.996-274.004-90-415c-38.994-79.004-62.002-110-132.998-180.996
		c-140.996-142.002-290.996-201.006-505-200c-327.998,0.996-572.998,176.992-680,490c-37.002,108.994-47.998,204.995-42.002,347.998
		c7.002,152.998,22.002,215,89.004,351.997c42.998,88.999,62.002,116.001,132.002,185
		C8002.001,3072.001,8102.997,3126,8254.999,3156C8339.003,3172.001,8495.995,3167.001,8589.999,3145z"/>
	<path fill="#1E4481" d="M10164.999,3270C9920.995,3236,9750.995,3131,9672.001,2966c-32.998-67.002-61.006-173.999-62.002-228.003
		c0-27.998,0-27.998,67.998-27.998h67.998l12.002,61.001c35,190,162.002,317.998,372.002,375c90,23.999,310,25,397.998,0
		c147.998-40,249.004-113.003,301.006-218.003c25.996-50,30.996-72.998,30.996-128.999c0-132.998-30.996-207.998-100.996-243.999
		c-70-37.002-191.006-57.002-487.002-80c-295-23.999-445-58.999-559.004-133.999c-140.996-93.003-202.002-206.997-202.998-378.003
		c-0.996-257.998,130.996-410,405.996-467.998c105-22.998,332.002-22.998,432.002-0.996
		c214.004,46.992,412.002,177.998,477.998,315.996c10,22.002,22.002,40,27.002,40c4.004,0,7.002-37.002,7.002-82.002
		c0-45.996,5-100.996,10.996-122.998c14.004-50,67.002-100.996,122.002-115.996c47.998-13.008,167.998-17.002,210-6.006
		c25,7.002,27.002,11.006,27.002,57.002v50h-77.998c-82.002,0-110,10.996-134.004,52.998c-10,17.002-13.994,167.998-17.998,632.002
		c-5,553.999-7.002,615-24.004,660c-51.992,145-176.992,237.002-381.992,280C10502.997,3273.999,10254.999,3282.998,10164.999,3270z
		 M10859.999,2317.998c0-195-14.004-270-70-387.002c-74.004-152.998-217.998-268.994-395-315.996
		c-85.996-22.998-234.004-34.004-329.004-24.004c-186.992,19.004-313.994,91.006-375.996,213.008c-32.998,65-35,73.994-34.004,165
		c0,73.994,5,105.996,21.006,140.996c43.994,97.002,125,161.001,257.998,202.998c100,31.001,172.002,42.002,405,62.002
		c309.004,26.001,422.002,47.002,484.004,91.001c10.996,7.998,23.994,13.999,27.998,13.999
		C10857.001,2480,10859.999,2407.001,10859.999,2317.998z"/>
	<path fill="#1E4481" d="M12944.998,3272.998c-299.004-35.996-472.998-136.997-530.996-305c-27.002-75.996-24.004-213.999,5-290
		c31.992-82.998,102.998-155.996,198.994-205.996C12719.998,2417.998,12819.998,2391,13102,2336
		c328.994-63.999,437.002-103.999,517.002-191.001c71.992-77.998,92.998-165.996,65.996-267.998
		c-30-114.004-107.998-189.004-250-239.004c-100-35.996-192.002-50-335-50c-317.998,1.006-540.996,142.998-614.004,391.006
		c-8.994,30-15.996,66.992-15.996,82.998V2090h-70h-70v-42.998c0-120,64.004-262.998,164.004-362.998
		c155.996-157.002,415.996-230,717.998-204.004c253.994,22.002,412.002,82.998,522.998,200.996c75,80,85,111.006,85,276.006
		c0,165.996-10.996,202.998-87.002,283.999c-90.996,96.997-220,150-505,203.999c-473.994,91.001-593.994,138.999-662.998,267.002
		C12500.994,2828.999,12537,2971,12652,3056c142.998,105,427.002,141.997,650.996,85c192.002-50,302.998-163.999,331.006-343.003
		l10-67.998H13712h67.998v40c0,62.002-19.004,138.999-52.998,210c-92.002,195-332.998,303.999-662.002,298.999
		C13015.994,3277.998,12962,3275,12944.998,3272.998z"/>
	<path fill="#1E4481" d="M4522.998,3227.998C4525.996,3221,4705,2835,4920,2371l390.996-843.999l-16.992-46.006
		c-36.006-95.996-180-413.994-276.006-607.998c-82.998-168.994-107.002-208.994-145-242.002c-60-53.994-133.994-80-265-92.998
		L4500,527.002v-52.998V420h57.998c107.998,0.996,249.004,19.004,307.998,40.996c93.008,34.004,158.008,108.008,238.008,272.002
		C5140,805.996,5357.998,1302.002,5590,1835c232.001,533.999,464.003,1067.002,515.996,1185l93.008,215l-76.006,2.998
		c-42.002,2.002-78.994-0.996-82.998-5c-4.004-3.999-150-355.996-325-780c-175.996-425-320.996-772.998-324.004-772.998
		c-3.994,0-162.998,350.996-355,780l-350,780h-83.994C4539.003,3240,4519.003,3237.001,4522.998,3227.998z"/>
</g>
</svg>
